# Blender 4.2.1 LTS
# www.blender.org
mtllib jellyfish.mtl
o Object_20
v 11.074471 25.136011 -9.358148
v -6.438614 26.855923 -17.185642
v -6.704948 14.521008 -18.437338
v 0.762399 12.585478 -11.054704
v 3.139474 30.346113 -5.230482
v -8.121399 36.635162 -16.492300
v 10.551150 12.109709 -15.635935
v 13.393125 26.301418 -13.631531
v 18.188532 -216.620590 62.006371
v 20.461840 -217.385269 65.580696
v 19.610514 -215.386581 67.775345
v 15.500341 -216.238602 64.223869
v 12.476593 -210.470627 63.997021
v 16.265196 -210.832138 59.909725
v 21.966593 -210.124039 64.939537
v 18.864450 -209.339615 69.313637
v -41.602707 -222.585266 29.955477
v -39.910049 -217.386612 16.538609
v -34.642586 -214.962646 19.630173
v -38.788963 -217.559265 30.270140
v -46.878246 -215.557632 25.139797
v -46.094738 -212.567780 15.194171
v -44.013531 -212.934006 30.658737
v 57.476105 -11.652096 -1.896690
v 51.229088 -11.725481 1.137058
v 49.296494 -8.314528 -1.489299
v 53.093052 -11.746801 -7.367394
v 55.869759 -11.923355 -10.184182
v 58.331154 -7.494115 -6.047462
v 58.260708 -4.394765 5.723667
v 60.839546 -12.051775 11.492482
v 61.563950 -14.979248 3.714528
v 57.016872 0.959790 0.261926
v 54.686375 -18.296270 4.980192
v -36.485218 -212.453049 32.997147
v -33.349728 -208.646912 22.577637
v -38.581108 -202.885284 22.822895
v -41.467667 -206.036057 29.312452
v 35.065617 -3.807210 5.002163
v 30.100615 -1.860127 3.101187
v 35.223232 4.934865 -0.902912
v 42.014008 -1.127606 -0.118613
v 32.705105 -10.550415 10.981516
v 28.383043 -13.928886 5.019516
v 43.108963 -5.667658 5.711566
v 44.016682 3.825228 11.492201
v 31.292080 4.259867 16.553679
v 20.849895 5.128456 19.655922
v 23.614021 -11.659039 19.246912
v 25.870319 -31.997679 18.388952
v 31.335777 -34.034103 11.218146
v 72.091736 -212.531921 -49.087250
v 72.752144 -208.163376 -46.658295
v 74.010483 -206.852020 -48.574921
v 75.903824 -209.257385 -51.483540
v 69.707565 -218.627396 -48.755371
v 73.960777 -214.300125 -51.554852
v 74.413124 -211.182663 -45.119083
v 78.576103 -211.294785 -46.872314
v 20.005121 14.949034 0.115080
v 10.493547 18.139969 5.150233
v 5.045118 33.477451 2.781335
v -3.457371 47.241943 0.695966
v -7.892056 44.849979 -8.115672
v 28.597567 17.934364 -2.242034
v 21.193815 35.519485 -9.009852
v 31.175556 30.255144 -3.116770
v -15.914833 -192.458374 28.385035
v -10.995275 -189.962692 32.180504
v -13.470432 -186.172745 33.914951
v -17.480881 -188.472672 28.896526
v -13.384620 -190.699509 25.562105
v -9.499670 -191.375427 29.076588
v -15.525256 -187.002747 26.435818
v -3.396649 -189.840073 27.521328
v -2.870031 -186.400024 33.852802
v -7.303037 -189.023148 21.696335
v 48.967266 -5.097750 -5.768630
v 48.825645 -10.505585 7.888162
v 50.065731 9.317705 6.642323
v 43.655907 19.861235 11.801920
v 36.106743 18.436115 16.786192
v 26.174650 19.630659 19.528688
v 20.945021 3.786658 2.501172
v 11.103921 5.331402 8.704979
v 40.500267 9.657997 -3.796202
v 42.325283 30.494452 6.077976
v 46.194527 21.931669 3.971754
v 39.409317 21.051607 -3.032808
v 36.308922 39.040539 -0.162539
v 42.422409 37.299843 8.609655
v 74.323669 -199.718338 -43.285858
v 75.149841 -201.274002 -47.255127
v 79.607933 -199.544418 -49.320045
v 50.895519 -10.397831 -10.000424
v 48.902203 -16.879774 -13.098005
v 51.900440 -18.407024 -12.451805
v 54.473259 -18.204428 -13.980795
v 27.207172 85.159554 10.466051
v 25.543753 86.969200 1.469785
v 11.253922 90.694672 6.241284
v 18.984741 87.653412 16.529055
v 37.679977 79.257874 14.202155
v 40.932987 78.821121 -1.542297
v 27.959419 81.335815 27.515650
v -38.086086 77.941231 -18.548916
v -38.807732 80.946320 -2.539923
v -23.794954 86.682320 -8.918220
v -26.258606 80.781242 -26.127090
v -48.764767 66.639458 -25.372507
v -54.160320 68.701706 0.299021
v -32.216557 68.994675 -41.800510
v 16.623779 86.152382 -17.865147
v 5.480623 88.244621 -17.417364
v 7.997173 90.905716 -4.553997
v 21.416119 86.751884 -9.255795
v 23.204235 80.557838 -28.583414
v 6.857533 81.285896 -33.488789
v 36.331562 79.192879 -17.617611
v -2.119963 89.501282 27.918919
v -11.196693 90.358467 20.599352
v -21.789579 83.499420 32.669941
v -4.490199 83.941917 39.655712
v 13.126853 83.187363 36.236759
v 8.179935 89.448738 23.068491
v 0.614166 91.724937 12.610149
v -5.614541 91.736206 0.504572
v -19.764593 89.429710 7.850050
v -34.725075 82.557434 17.207092
v -8.873161 88.942978 -14.783413
v -10.218442 81.671890 -32.583748
v -12.658815 69.998520 -49.316616
v 9.400275 69.987389 -49.482113
v 11.848988 56.878830 -61.224945
v -14.666531 56.251236 -61.173607
v 30.535233 69.693237 -41.908665
v 36.521641 57.086185 -51.681908
v 41.336418 43.192520 -58.742195
v 14.041395 42.492119 -69.878250
v 47.207676 68.620712 -26.180822
v 55.513988 56.539299 -32.565067
v 62.303249 43.301453 -36.637253
v 67.259087 30.415491 -39.162979
v 45.227234 29.926722 -63.018082
v 64.078232 55.790565 -6.019967
v 71.855263 42.726006 -6.492641
v 77.472534 30.053007 -6.872447
v 79.774300 21.135162 -7.249865
v 69.187057 21.288740 -40.147621
v 66.989960 41.686184 24.936594
v 72.698509 29.467505 25.943136
v 75.212204 20.989782 26.072395
v 74.578079 13.545776 26.254217
v 79.395653 13.574820 -7.337481
v 53.881634 29.411598 55.364609
v 55.072247 21.145510 57.109291
v 53.946018 13.916836 56.810493
v 49.425091 10.546404 52.777584
v 69.268661 9.230185 24.501869
v 24.849487 20.690493 78.064346
v 24.661428 12.806690 77.330025
v 21.907217 11.668455 70.344780
v 19.856606 16.802809 64.500320
v 44.828983 14.145334 48.776188
v -9.362944 10.729450 81.804329
v -7.914113 9.814491 73.311501
v -6.848659 15.698385 66.283585
v -5.805263 26.077850 60.929764
v 18.442865 25.359558 60.523861
v -37.154072 7.827848 62.017315
v -32.740269 14.029976 55.729031
v -28.106245 25.083633 50.846684
v -22.071077 44.350349 45.791924
v -3.821537 43.337688 55.374897
v -53.131592 12.259075 35.775555
v -45.523361 22.902227 32.549728
v -35.361252 42.750389 28.427031
v -27.167725 59.110710 23.930147
v -15.159734 60.638020 40.348591
v -54.499138 20.780712 7.026290
v -43.121239 39.486271 5.375465
v -34.240910 54.278206 2.920620
v -26.508846 62.169441 1.120982
v -20.108540 67.172127 20.389174
v -42.811462 35.928173 -21.264059
v -34.989513 49.452854 -19.834019
v -26.794180 57.721172 -17.027473
v -19.153011 59.205692 -14.233757
v -17.612932 63.281731 -0.276639
v -26.646456 47.300404 -38.372841
v -20.111769 55.587532 -31.880337
v -15.163543 57.575588 -26.205441
v -12.385662 53.928452 -22.178743
v -13.751019 54.325272 -11.333582
v -7.307924 54.647358 -41.648243
v -6.163530 58.138348 -34.564690
v -5.081269 57.466919 -27.591761
v -4.563526 51.244522 -25.308098
v -11.092695 46.513657 -18.187807
v 9.352010 59.358074 -31.588398
v 7.376941 58.718212 -24.612730
v 6.149423 52.552109 -21.784584
v 5.881854 44.510445 -23.933321
v -4.110738 43.392975 -26.441334
v 20.669552 56.379795 -16.649841
v 16.990967 49.409473 -14.730740
v 14.541978 40.994877 -16.928375
v 12.121166 31.006105 -21.542885
v 5.763362 33.588093 -28.049747
v 26.629751 43.834728 -7.011500
v 31.966024 51.189682 -7.835116
v 39.733212 44.648712 0.983815
v 37.756683 53.780979 -13.390068
v 44.297806 48.082253 0.262867
v 44.958626 43.306725 14.266288
v 42.912552 41.664425 12.467744
v 39.700684 48.145370 25.996346
v 38.223625 43.948467 22.070621
v 38.149708 38.308109 18.419310
v 39.669464 30.012957 15.551499
v 28.020990 51.088936 25.124086
v 28.569517 42.656582 21.575872
v 31.059296 31.528116 19.733330
v 18.750702 47.714962 20.104959
v 21.549303 34.367996 19.785648
v 9.452868 51.039185 15.483295
v 12.734619 36.139885 17.069000
v 17.138226 21.009022 19.955999
v 6.585758 36.009605 10.713327
v 11.076133 21.056877 13.954906
v 11.836520 6.150601 16.188038
v 14.686796 -10.293795 17.295143
v 13.624072 -10.296465 10.023117
v 15.638247 -33.232052 10.016715
v 18.172546 -33.130322 17.098898
v 19.810902 -10.276985 4.351414
v 20.419800 -32.036640 4.041617
v 20.844954 -60.864426 2.743422
v 16.579563 -60.907940 9.324920
v 28.302345 -34.600330 4.744254
v 28.622242 -61.224190 3.325209
v 25.132694 -92.630722 1.797680
v 17.299795 -91.365150 1.995215
v 31.787914 -61.645176 10.207613
v 29.078602 -93.410461 8.262911
v 23.801495 -123.850006 7.507238
v 19.096460 -123.367836 1.449223
v 27.553480 -61.805882 16.708696
v 25.322077 -92.992226 15.097829
v 20.842735 -122.966988 14.648763
v 17.161463 -145.301224 15.899174
v 19.214626 -146.992050 8.809461
v 17.449131 -91.799675 15.424863
v 13.101317 -121.687500 15.572689
v 9.784157 -143.530045 17.299067
v 5.641323 -161.491043 22.289381
v 12.331113 -164.931061 20.941353
v 8.379683 -121.127350 9.399837
v 4.687353 -143.462021 11.429127
v 0.563711 -161.620056 16.618139
v -5.968082 -173.497131 23.425613
v -0.941374 -173.482971 29.043488
v 6.712718 -144.935104 4.133725
v 1.343089 -164.805069 9.559196
v -6.008360 -177.732727 17.011509
v -11.634366 -183.823151 22.495367
v -11.405138 -180.097382 28.046778
v 8.051568 -168.093216 8.225381
v -0.238317 -182.320221 15.844756
v 13.245301 -168.140472 14.110680
v 4.738011 -182.438950 21.497124
v 4.708347 -178.391037 27.923449
v -7.533972 -180.592575 34.160686
v -14.812157 -183.844788 29.740978
v 14.165494 -146.815094 2.954581
v 11.446208 -121.907738 2.284690
v 13.464061 -90.955589 8.893695
v 19.795439 -61.393291 16.128092
v 0.877652 51.487576 7.828156
v 4.819526 65.857826 19.585932
v -4.882608 63.592674 9.903934
v -10.303775 57.709114 -0.436052
v -12.202238 69.828781 15.079861
v -0.764192 71.839714 27.295565
v -7.988170 69.204460 34.577869
v 14.947605 66.036758 31.865700
v 8.200040 64.860313 42.396618
v 2.386611 57.549709 49.677437
v 26.758406 55.563244 40.797359
v 23.479719 48.860065 49.858559
v 18.543499 38.567780 55.785004
v 42.825741 38.197536 39.550091
v 41.290318 29.971281 44.427586
v 42.298061 20.781534 46.456051
v 56.872169 25.365322 21.340792
v 59.319038 17.455919 21.470985
v 63.013435 11.503504 22.180914
v 63.257122 18.711470 -7.998990
v 67.043716 12.076653 -7.801364
v 73.784081 9.149223 -7.483447
v 58.286697 14.006414 -35.211452
v 63.706059 9.612036 -37.664116
v 68.768784 13.775463 -39.961529
v 43.632439 9.220282 -59.307827
v 47.045044 13.304234 -63.787094
v 47.059422 20.885256 -64.421448
v 17.037756 11.902935 -77.093628
v 16.740246 19.562496 -77.678421
v 15.779524 28.718655 -75.650291
v -17.524914 18.065557 -77.505211
v -16.944399 27.488607 -75.443336
v -15.919980 41.436954 -69.843117
v -47.727764 25.776588 -61.866486
v -44.571491 39.501492 -57.612110
v -39.526730 54.574234 -51.178818
v -66.739326 36.309437 -32.275097
v -59.432793 51.948231 -29.306511
v -75.565300 34.665592 2.586278
v -67.860733 50.502129 1.079158
v -66.575562 36.714508 38.691200
v -59.887409 52.139874 34.109436
v -50.509506 67.018776 28.067905
v -38.606472 55.310242 57.285870
v -32.373966 69.629173 47.759182
v -10.065285 56.746494 66.697922
v -8.624228 70.815628 55.757759
v 20.170776 56.929211 61.656219
v 16.922358 70.405052 51.454830
v 44.276779 56.259293 45.076271
v 37.108940 69.771423 37.377090
v 59.397552 55.434628 21.874659
v 49.923687 67.950233 18.603701
v 54.301102 67.864716 -4.111323
v 50.221329 41.517845 51.339527
v 23.070143 42.427437 69.788048
v 24.603613 29.441053 75.688889
v -10.136039 41.955612 75.361832
v -9.952080 28.399334 81.178322
v -9.811529 19.159090 83.888672
v -44.480350 26.921021 69.441116
v -44.670200 17.438496 71.451714
v -42.413849 8.811918 69.435287
v -70.660667 14.937344 43.984886
v -67.565872 6.908269 43.174091
v -59.758179 6.597946 39.331890
v -77.381340 6.345943 7.183519
v -69.412575 5.794461 7.465065
v -62.414783 10.889170 7.410387
v -63.197811 5.516616 -27.956991
v -57.130432 10.390444 -25.137751
v -51.828140 18.755611 -23.352301
v -40.211697 10.945536 -51.387920
v -37.004547 18.968155 -48.234848
v -32.068832 33.871666 -43.730385
v -12.679654 20.289423 -61.336983
v -11.005270 34.805614 -55.294640
v -9.000567 47.960449 -48.121891
v 13.220522 36.467815 -56.206978
v 12.023461 49.587891 -47.220810
v 10.972771 56.373562 -39.313824
v 31.560406 48.975632 -39.448391
v 28.042572 55.627419 -31.308502
v 24.558922 58.294796 -23.362528
v 42.465546 50.972622 -20.203075
v 47.063641 44.679737 -26.050159
v 55.212189 39.480015 -4.092668
v 49.553616 45.669922 -2.052081
v 53.711052 37.008533 19.171415
v 49.570904 43.243031 16.272360
v 40.787132 46.360886 31.431377
v 28.392818 56.139591 31.655584
v 17.066799 59.088711 23.564754
v 60.212303 27.727907 -7.582202
v 51.744228 32.881851 -31.556828
v 55.041122 21.578823 -33.966370
v 35.077293 36.083759 -47.636456
v 37.847630 22.269739 -52.575493
v 40.076283 14.462904 -55.139278
v 14.075979 21.432749 -62.455421
v 14.735050 13.579777 -65.895073
v 15.957843 8.192835 -71.201302
v -14.103662 12.117462 -64.932281
v -15.566190 6.848545 -70.581490
v -17.168446 10.197355 -76.830627
v -44.360535 5.840555 -56.056179
v -48.822800 8.344389 -61.684341
v -49.208771 16.439713 -63.072914
v -69.945885 6.891846 -31.572563
v -72.028748 14.343164 -33.243034
v -70.799301 23.086945 -33.671379
v -80.690430 13.655258 6.298659
v -79.510307 22.069664 4.691383
v -69.897499 23.864264 42.116829
v -42.562496 40.143021 64.665115
v 4.748374 14.659397 -30.333561
v -4.108566 14.853270 -27.618084
v -3.423710 32.469017 -27.467625
v 11.370891 13.833086 -24.536633
v 8.215334 -13.670364 -24.408205
v 0.683656 -12.600933 -30.174221
v 6.620217 -13.018251 -15.187225
v -2.190431 -44.285606 -14.969765
v -0.804631 -44.927498 -23.949633
v -2.324404 -11.028446 -11.612062
v -10.481213 -41.633221 -11.519961
v -20.303900 -72.008995 -11.501967
v -12.906903 -74.432220 -14.930441
v -10.221532 -9.833488 -17.516665
v -17.945656 -39.536430 -16.789394
v -27.282084 -69.979340 -16.277054
v -35.243935 -101.492607 -16.153290
v -28.471581 -103.072075 -11.813405
v -16.514959 -40.107086 -25.841806
v -26.237831 -70.365105 -24.784693
v -34.465271 -101.655602 -24.332916
v -40.500736 -133.333908 -24.305607
v -40.849979 -133.090302 -16.301104
v -18.747198 -72.661934 -28.258833
v -27.474392 -103.238029 -27.905529
v -33.568115 -134.215012 -28.041477
v -35.901962 -158.973221 -26.964426
v -42.788074 -158.379593 -23.152098
v -20.704041 -104.861343 -23.560230
v -26.782099 -135.004578 -24.052797
v -29.130596 -158.536316 -23.294487
v -27.578644 -178.273285 -18.731544
v -34.251514 -180.151169 -22.109499
v -27.165192 -134.928833 -16.042789
v -29.154301 -157.606888 -15.585360
v -27.061329 -175.303284 -11.664782
v -25.284725 -190.240051 -2.205685
v -26.000584 -195.412445 -7.989446
v -35.920177 -157.237793 -11.764821
v -33.914753 -174.870834 -8.161176
v -32.228607 -187.511520 0.183225
v -35.243542 -197.511597 12.929284
v -28.912725 -202.631149 12.172334
v -40.673447 -176.906494 -11.445186
v -39.168247 -190.017181 -3.236212
v -42.523380 -199.564911 9.173002
v -45.722755 -204.474792 18.812580
v -39.569836 -195.340195 -9.139150
v -43.236534 -206.723801 4.878140
v -32.577049 -197.761948 -11.204728
v -36.357723 -211.021439 4.245339
v -29.748608 -208.976044 7.641593
v -41.190086 -179.486176 -18.698683
v -42.777477 -157.571609 -15.354980
v -34.073345 -133.922791 -12.236047
v -21.479736 -104.737358 -15.387846
v -11.820947 -74.886322 -23.519968
v -8.189111 -42.681084 -29.205120
v -8.374155 -10.669813 -26.910089
v -46.893509 -206.374512 24.901491
v 53.194981 -27.276913 -15.987602
v 53.535046 -26.878265 -19.344093
v 53.924877 -17.267256 -16.324913
v 55.943996 -9.902681 -13.146151
v 50.674187 -27.097055 -13.217535
v 52.159203 -40.762024 -11.150441
v 54.215233 -40.905212 -14.754774
v 46.275700 -26.599964 -13.906265
v 47.723454 -42.153370 -11.981626
v 56.938736 -61.838997 -9.026620
v 61.435379 -59.790131 -7.988341
v 46.516899 -26.526922 -16.923952
v 47.633358 -42.683975 -15.253910
v 56.113762 -62.281670 -12.373018
v 63.433521 -84.464035 -15.779186
v 65.454315 -84.615776 -12.423735
v 49.687859 -42.654671 -18.731564
v 57.735706 -61.637421 -16.136974
v 64.101410 -82.928162 -20.626461
v 73.957741 -110.498413 -28.006340
v 73.632088 -112.149956 -22.309568
v 61.878864 -59.900188 -15.531374
v 69.096359 -81.679054 -19.464993
v 79.212952 -108.932755 -26.731802
v 86.309212 -134.671890 -33.191914
v 81.027458 -135.666885 -33.752377
v 71.104942 -81.853981 -16.045238
v 82.072258 -108.752441 -23.275972
v 89.881592 -134.571014 -29.946571
v 91.144539 -158.043060 -36.068333
v 86.964066 -157.103607 -38.729408
v 81.691933 -110.292213 -17.538568
v 89.382568 -136.071732 -23.878620
v 90.411491 -159.597504 -29.758743
v 86.696037 -187.766144 -36.858356
v 87.918488 -186.215683 -43.587433
v 84.079247 -137.115372 -24.454025
v 85.051514 -159.214401 -29.357681
v 81.249763 -186.932220 -35.737152
v 76.718292 -203.585068 -40.774597
v 82.309868 -204.849442 -42.651405
v 80.869179 -158.154892 -32.070618
v 76.410057 -185.425644 -37.704418
v 81.614830 -156.788300 -38.438690
v 77.555618 -184.251312 -44.400623
v 82.807701 -184.878296 -45.715958
v 84.144791 -202.774246 -48.568848
v 81.460220 -210.770950 -51.290081
v 80.527885 -137.127151 -27.697376
v 76.500443 -111.987251 -18.832151
v 70.377808 -83.061218 -11.173326
v 62.779247 -59.406738 -12.347470
v 54.101616 -41.457020 -18.033655
v 48.823830 -26.604521 -20.188078
v 49.230637 -16.511660 -15.594894
v 51.359589 -16.135284 -18.701162
v 51.309853 -8.667919 -13.054276
v 53.098743 -8.037481 -15.219265
v 49.889179 -3.244420 -8.827022
v 52.873333 -1.903504 -10.972336
v 57.174377 -3.500242 -9.406006
v 50.131374 4.498693 -6.974258
v 55.533852 4.027600 -4.538478
v 45.893280 12.550974 -4.704916
v 51.353008 13.036926 0.216780
v 45.539577 2.444492 -5.467378
v 52.946430 -15.207233 11.528349
v 59.673317 -25.600449 18.522537
v 67.325172 -21.208244 18.208101
v 61.197132 -28.694212 11.010044
v 69.591446 -43.736874 17.320278
v 68.145195 -42.022118 25.215231
v 68.909294 -24.338493 10.553846
v 77.637115 -41.098557 17.893076
v 80.063644 -62.425083 20.894329
v 71.868500 -61.955570 19.482576
v 76.054787 -39.446991 25.652195
v 78.347969 -61.384342 28.730381
v 72.638138 -85.657867 33.655567
v 74.410011 -88.794632 26.091082
v 70.420845 -61.065674 27.372337
v 64.337631 -83.877853 31.572212
v 54.471760 -109.352692 42.103489
v 62.549717 -111.832222 45.101753
v 66.347557 -87.049065 24.014164
v 57.099895 -113.901947 34.517578
v 44.073978 -139.502548 44.612209
v 40.434277 -134.396454 52.494419
v 65.126991 -116.275269 37.594425
v 51.933594 -142.705429 48.921658
v 36.166088 -167.816971 56.744335
v 28.788763 -163.933380 51.108768
v 48.412792 -137.781906 56.583256
v 31.501902 -163.248535 64.793732
v 19.623646 -184.308853 68.177620
v 25.918903 -187.158646 59.471661
v 24.166897 -159.648315 59.356503
v 12.257338 -182.741501 61.736538
v 9.559510 -199.552551 63.698597
v 16.904446 -199.128540 69.839836
v 17.607267 -185.419586 53.592941
v 15.295524 -201.460236 56.443966
v 23.148817 -201.141022 61.933159
vn 0.0374 -0.9991 0.0222
vn -0.9443 -0.1628 0.2860
vn -0.9381 0.1201 0.3250
vn -0.1531 -0.0227 0.9880
vn -0.7397 -0.6111 0.2819
vn -0.9397 -0.3380 0.0525
vn 0.8538 -0.1971 0.4818
vn 0.9135 -0.3437 -0.2178
vn 0.0745 -0.7380 -0.6707
vn 0.5600 -0.8275 0.0405
vn 0.2016 -0.4999 0.8423
vn -0.7240 -0.6785 0.1245
vn -0.9256 -0.3644 0.1025
vn -0.0871 -0.3794 -0.9211
vn 0.9925 -0.1115 -0.0507
vn 0.1624 -0.1258 0.9787
vn -0.1822 -0.9278 0.3255
vn -0.0087 -0.9320 -0.3624
vn 0.7919 -0.6105 0.0156
vn 0.3600 -0.5904 0.7224
vn -0.9161 -0.3565 0.1836
vn -0.8598 -0.3735 -0.3483
vn -0.5710 0.0109 0.8209
vn 0.6582 -0.6421 -0.3930
vn -0.5233 -0.8076 -0.2719
vn -0.6617 -0.7220 -0.2023
vn -0.2157 -0.9289 0.3011
vn 0.8949 -0.4431 0.0531
vn 0.9771 -0.1676 -0.1308
vn 0.7642 0.3061 0.5678
vn 0.4577 0.7012 0.5467
vn 0.7269 -0.0738 -0.6827
vn 0.9279 0.2871 0.2380
vn -0.4970 -0.7128 -0.4949
vn 0.5179 0.0433 0.8543
vn 0.8959 0.1420 0.4210
vn 0.1573 0.8660 0.4746
vn -0.1389 0.6627 0.7359
vn 0.0882 -0.6198 -0.7798
vn 0.0339 -0.3530 -0.9350
vn -0.2710 -0.3462 -0.8982
vn -0.4761 -0.5414 -0.6929
vn 0.8844 -0.3865 0.2616
vn 0.4619 -0.1226 -0.8784
vn -0.2276 -0.9374 0.2638
vn 0.4522 -0.1020 0.8861
vn 0.3755 -0.1581 0.9132
vn -0.0370 -0.0541 0.9979
vn 0.2183 -0.0493 0.9746
vn 0.3554 -0.0262 0.9344
vn 0.9944 0.0025 0.1058
vn -0.9322 0.2703 -0.2408
vn -0.9832 0.1661 0.0752
vn -0.7517 0.3236 -0.5746
vn -0.2525 -0.0078 -0.9676
vn -0.5732 -0.7888 0.2217
vn -0.1264 -0.6918 -0.7109
vn -0.2796 -0.5099 0.8135
vn 0.5880 -0.7565 0.2863
vn -0.4432 -0.4942 -0.7479
vn -0.9201 -0.3500 -0.1759
vn -0.8671 -0.4263 0.2575
vn -0.7731 -0.4013 0.4913
vn -0.8303 -0.4137 0.3735
vn -0.0766 -0.2397 -0.9678
vn 0.6352 -0.2405 -0.7340
vn 0.4872 -0.0333 -0.8726
vn -0.5423 -0.8396 0.0316
vn -0.0321 -0.7056 0.7079
vn -0.5364 0.0944 0.8387
vn -0.9853 -0.1172 0.1246
vn -0.3318 -0.7298 -0.5977
vn 0.2095 -0.9738 0.0878
vn -0.8424 0.1585 -0.5150
vn 0.4831 -0.8739 0.0532
vn 0.4696 -0.3765 0.7986
vn -0.0727 -0.7298 -0.6798
vn -0.8438 -0.4032 -0.3542
vn -0.6554 -0.4376 0.6156
vn 0.7767 0.2893 0.5596
vn 0.7589 0.1433 0.6353
vn 0.3912 -0.0739 0.9173
vn 0.1328 -0.0528 0.9897
vn -0.3530 -0.2139 -0.9108
vn -0.9149 -0.1531 -0.3736
vn -0.2665 -0.0950 -0.9592
vn 0.9386 0.2338 -0.2539
vn 0.8581 0.4878 -0.1604
vn 0.3223 0.2881 -0.9017
vn 0.6727 -0.1340 -0.7277
vn 0.9815 -0.1187 -0.1502
vn -0.9533 0.0503 0.2979
vn -0.7518 0.3015 -0.5864
vn -0.0538 0.2478 -0.9673
vn -0.9773 -0.1761 0.1175
vn -0.8869 0.0775 0.4554
vn 0.1280 -0.3215 0.9382
vn 0.9130 -0.2738 0.3024
vn 0.4048 0.9067 0.1186
vn 0.3653 0.9307 -0.0165
vn 0.1930 0.9810 0.0204
vn 0.3081 0.9354 0.1736
vn 0.5481 0.8159 0.1838
vn 0.5576 0.8297 -0.0240
vn 0.4379 0.8286 0.3488
vn -0.5177 0.8100 -0.2755
vn -0.5348 0.8420 -0.0711
vn -0.3104 0.9352 -0.1706
vn -0.3396 0.8589 -0.3833
vn -0.6507 0.6774 -0.3431
vn -0.7302 0.6827 -0.0267
vn -0.4197 0.7140 -0.5603
vn 0.2261 0.9303 -0.2890
vn 0.0783 0.9513 -0.2983
vn 0.1250 0.9839 -0.1275
vn 0.3030 0.9376 -0.1708
vn 0.2888 0.8631 -0.4142
vn 0.0849 0.8702 -0.4853
vn 0.4699 0.8461 -0.2516
vn -0.0015 0.9480 0.3182
vn -0.1708 0.9663 0.1924
vn -0.3323 0.8575 0.3929
vn -0.0374 0.8506 0.5245
vn 0.2539 0.8383 0.4825
vn 0.1780 0.9535 0.2434
vn 0.0366 0.9970 0.0684
vn -0.0748 0.9944 -0.0743
vn -0.2786 0.9601 0.0262
vn -0.4920 0.8530 0.1739
vn -0.1153 0.9584 -0.2611
vn -0.1223 0.8758 -0.4670
vn -0.1490 0.7388 -0.6573
vn 0.1127 0.7444 -0.6582
vn 0.1373 0.5939 -0.7927
vn -0.1813 0.5773 -0.7962
vn 0.3694 0.7400 -0.5621
vn 0.4427 0.5952 -0.6706
vn 0.4946 0.4585 -0.7384
vn 0.1575 0.4541 -0.8769
vn 0.6019 0.7208 -0.3438
vn 0.6999 0.5824 -0.4135
vn 0.7671 0.4563 -0.4509
vn 0.8190 0.3201 -0.4763
vn 0.5392 0.3151 -0.7810
vn 0.8202 0.5698 -0.0518
vn 0.8859 0.4601 -0.0592
vn 0.9405 0.3324 -0.0711
vn 0.9917 0.0970 -0.0847
vn 0.8616 0.0931 -0.4989
vn 0.8278 0.4581 0.3239
vn 0.8820 0.3320 0.3345
vn 0.9359 0.0840 0.3421
vn 0.8207 -0.4748 0.3178
vn 0.8916 -0.4463 -0.0768
vn 0.6818 0.3245 0.6556
vn 0.7168 0.0696 0.6938
vn 0.6009 -0.5401 0.5893
vn 0.0095 -0.9997 0.0243
vn 0.1608 -0.9841 0.0761
vn 0.3666 0.0635 0.9282
vn 0.3118 -0.6296 0.7116
vn -0.0121 -0.9880 -0.1537
vn -0.2406 -0.6544 -0.7168
vn -0.5178 -0.7090 -0.4788
vn -0.0343 -0.7014 0.7119
vn 0.0938 -0.9722 -0.2144
vn 0.1562 -0.6469 -0.7464
vn 0.1846 -0.4071 -0.8945
vn -0.2772 -0.3816 -0.8818
vn 0.1774 -0.9691 -0.1713
vn 0.4440 -0.6735 -0.5910
vn 0.5390 -0.4626 -0.7039
vn 0.5711 -0.4355 -0.6959
vn 0.1850 -0.3875 -0.9031
vn 0.6147 -0.7144 -0.3343
vn 0.7412 -0.5393 -0.3998
vn 0.7875 -0.4845 -0.3810
vn 0.7365 -0.6098 -0.2927
vn 0.4943 -0.6139 -0.6155
vn 0.8247 -0.5622 -0.0609
vn 0.8597 -0.5063 -0.0678
vn 0.7968 -0.6041 -0.0157
vn 0.5058 -0.8534 0.1261
vn 0.5022 -0.8580 -0.1083
vn 0.8350 -0.4854 0.2591
vn 0.7554 -0.6049 0.2521
vn 0.4487 -0.8613 0.2383
vn -0.2510 -0.9498 0.1866
vn -0.1457 -0.9216 0.3598
vn 0.5732 -0.6016 0.5563
vn 0.3730 -0.8442 0.3850
vn -0.0403 -0.9989 0.0256
vn -0.6062 -0.7010 -0.3756
vn -0.7942 -0.5727 0.2032
vn 0.1644 -0.8238 0.5426
vn 0.0971 -0.9829 0.1566
vn 0.0049 -0.8478 -0.5303
vn -0.1894 -0.2473 -0.9503
vn -0.9029 -0.3638 -0.2291
vn -0.0303 -0.9917 0.1253
vn 0.2025 -0.8318 -0.5168
vn 0.4087 -0.1702 -0.8967
vn 0.4301 0.1896 -0.8826
vn -0.4146 0.0497 -0.9086
vn 0.1899 -0.7823 -0.5933
vn 0.5288 -0.2384 -0.8146
vn 0.7066 -0.0024 -0.7076
vn 0.8278 0.0077 -0.5610
vn 0.3526 0.1639 -0.9213
vn 0.5265 -0.2329 -0.8176
vn 0.2608 -0.6893 -0.6759
vn 0.5976 -0.5566 -0.5772
vn -0.2663 -0.9423 -0.2030
vn -0.0532 -0.9497 -0.3088
vn 0.0961 -0.9942 0.0475
vn 0.8032 -0.5909 0.0754
vn -0.3273 -0.9018 0.2821
vn 0.2582 -0.6534 0.7116
vn 0.6047 -0.2888 0.7423
vn 0.7355 -0.0051 0.6775
vn -0.3101 -0.5723 0.7591
vn -0.0533 -0.2842 0.9573
vn 0.2108 -0.1058 0.9718
vn -0.3606 -0.2194 0.9065
vn -0.1325 -0.0396 0.9904
vn -0.5685 -0.2418 0.7864
vn -0.5200 -0.0474 0.8529
vn -0.3168 -0.0150 0.9484
vn -0.8150 -0.1975 0.5447
vn -0.8540 -0.1098 0.5085
vn -0.8165 -0.0687 0.5733
vn -0.7163 -0.1009 0.6904
vn -0.9415 -0.1230 -0.3137
vn -0.9816 -0.0587 -0.1815
vn -0.6323 -0.0793 0.7707
vn -0.3557 -0.0863 -0.9306
vn -0.3818 0.0050 -0.9242
vn -0.4282 0.0540 -0.9021
vn -0.9968 0.0344 -0.0723
vn 0.5588 0.0227 -0.8290
vn 0.5633 0.0149 -0.8261
vn 0.4839 -0.0451 -0.8739
vn -0.5000 0.0862 -0.8617
vn 0.9976 -0.0350 0.0596
vn 0.9910 -0.1295 -0.0329
vn 0.9746 -0.1823 -0.1303
vn 0.3869 -0.1030 -0.9163
vn 0.4614 -0.0519 0.8857
vn 0.5298 -0.0874 0.8436
vn 0.5980 -0.0809 0.7974
vn 0.6874 -0.0366 0.7253
vn 0.9455 -0.2531 -0.2047
vn -0.4644 0.0430 0.8846
vn -0.3877 0.0963 0.9167
vn -0.3046 0.2164 0.9275
vn -0.1748 0.4166 0.8921
vn 0.7488 -0.0505 0.6609
vn -0.9791 0.1741 0.1049
vn -0.9589 0.2316 0.1639
vn -0.8951 0.4134 0.1673
vn -0.7842 0.6110 0.1079
vn -0.0742 0.5611 0.8244
vn -0.6448 0.0185 -0.7642
vn -0.6916 -0.0063 -0.7222
vn -0.7254 0.0485 -0.6866
vn -0.7336 0.1223 -0.6685
vn -0.7339 0.6730 0.0925
vn 0.2274 -0.4314 -0.8730
vn 0.0911 -0.6141 -0.7839
vn 0.8774 -0.4402 -0.1907
vn 0.7446 -0.6588 -0.1077
vn 0.7310 -0.1407 0.6677
vn -0.1659 0.4337 0.8856
vn -0.7926 0.5976 0.1215
vn 0.3131 -0.2233 -0.9231
vn -0.5774 0.0759 -0.8129
vn -0.9909 0.1331 0.0204
vn -0.5479 -0.0210 0.8363
vn -0.7037 -0.3308 0.6288
vn -0.4815 -0.6668 0.5688
vn -0.5019 -0.6351 0.5871
vn -0.6480 -0.5773 0.4968
vn 0.0026 -0.9623 0.2720
vn -0.1604 -0.9855 0.0557
vn 0.2427 -0.8806 -0.4069
vn -0.4658 -0.8842 0.0357
vn -0.1876 -0.8101 -0.5555
vn 0.0495 -0.5712 -0.8194
vn -0.5348 -0.7081 -0.4610
vn -0.4088 -0.4736 -0.7801
vn -0.2783 -0.3266 -0.9033
vn -0.7225 -0.3934 -0.5685
vn -0.6755 -0.2617 -0.6894
vn -0.6646 -0.3691 -0.6497
vn -0.9018 -0.2770 -0.3317
vn -0.8583 -0.4048 -0.3152
vn -0.5925 -0.7790 -0.2051
vn -0.9104 -0.4092 0.0610
vn -0.6592 -0.7508 0.0432
vn 0.1810 -0.9830 -0.0294
vn -0.6566 -0.6588 0.3673
vn 0.0851 -0.9946 -0.0588
vn 0.7764 -0.4442 -0.4471
vn 0.0328 -0.9994 -0.0047
vn 0.5310 -0.4603 -0.7114
vn 0.5792 0.0872 -0.8105
vn 0.1995 -0.4918 -0.8475
vn 0.1984 0.0750 -0.9773
vn 0.1762 0.3061 -0.9355
vn -0.2198 0.0501 -0.9742
vn -0.2111 0.2926 -0.9326
vn -0.1997 0.4379 -0.8766
vn -0.5955 0.2621 -0.7594
vn -0.5619 0.4105 -0.7181
vn -0.5100 0.5508 -0.6607
vn -0.8332 0.3758 -0.4057
vn -0.7621 0.5253 -0.3785
vn -0.9294 0.3689 -0.0089
vn -0.8566 0.5156 -0.0197
vn -0.8241 0.3929 0.4080
vn -0.7676 0.5275 0.3639
vn -0.6679 0.6828 0.2961
vn -0.4887 0.5482 0.6787
vn -0.4280 0.7039 0.5669
vn -0.0828 0.5606 0.8240
vn -0.0708 0.7038 0.7068
vn 0.3142 0.5616 0.7654
vn 0.2865 0.6886 0.6662
vn 0.6039 0.5585 0.5687
vn 0.5416 0.6846 0.4879
vn 0.7739 0.5598 0.2962
vn 0.6854 0.6818 0.2556
vn 0.7153 0.6981 -0.0326
vn 0.6434 0.4552 0.6154
vn 0.3340 0.4612 0.8220
vn 0.3505 0.3365 0.8740
vn -0.0863 0.4485 0.8896
vn -0.0917 0.3262 0.9409
vn -0.0914 0.0180 0.9957
vn -0.5383 0.2849 0.7931
vn -0.5429 -0.0455 0.8386
vn -0.3292 -0.7425 0.5833
vn -0.8662 -0.0967 0.4902
vn -0.5387 -0.7698 0.3424
vn 0.2225 -0.9706 -0.0918
vn -0.6356 -0.7714 0.0305
vn 0.2221 -0.9750 -0.0054
vn 0.6872 -0.7256 -0.0353
vn 0.1712 -0.9839 0.0519
vn 0.6674 -0.7006 0.2527
vn 0.8068 -0.5204 0.2797
vn 0.5153 -0.6637 0.5422
vn 0.6190 -0.4630 0.6344
vn 0.6328 -0.4563 0.6256
vn 0.2525 -0.4163 0.8735
vn 0.2539 -0.4508 0.8558
vn 0.2221 -0.6186 0.7537
vn -0.1443 -0.4692 0.8712
vn -0.1400 -0.6584 0.7396
vn -0.1185 -0.8559 0.5034
vn -0.4524 -0.6679 0.5909
vn -0.3586 -0.8646 0.3518
vn -0.1816 -0.9827 -0.0360
vn -0.5692 -0.8069 0.1577
vn -0.7190 -0.6060 0.3403
vn -0.8595 -0.5105 0.0263
vn -0.6177 -0.7842 -0.0593
vn -0.8577 -0.4355 -0.2734
vn -0.6110 -0.7771 -0.1512
vn -0.6534 -0.6987 -0.2914
vn -0.5555 -0.8187 0.1455
vn -0.4969 -0.5699 0.6544
vn -0.9335 -0.3519 0.0683
vn -0.7956 -0.4183 0.4383
vn -0.8039 -0.3878 0.4509
vn -0.5059 -0.4636 0.7274
vn -0.5224 -0.3877 0.7594
vn -0.4543 -0.5940 0.6639
vn -0.1463 -0.3977 0.9058
vn -0.1248 -0.5851 0.8013
vn 0.0429 -0.9986 0.0318
vn 0.2254 -0.6135 0.7569
vn 0.0655 -0.9969 0.0431
vn -0.1601 -0.5437 -0.8239
vn 0.0980 -0.9940 0.0481
vn -0.4811 -0.6235 -0.6163
vn -0.6224 -0.0067 -0.7827
vn -0.6290 -0.7201 -0.2930
vn -0.9043 -0.0894 -0.4175
vn -0.8800 0.2172 -0.4224
vn -0.9921 -0.1224 0.0284
vn -0.9762 0.2166 0.0063
vn -0.8584 0.2492 0.4483
vn -0.5184 0.4207 0.7445
vn 0.2446 0.0252 -0.9693
vn -0.6913 0.0824 -0.7178
vn -0.5896 0.0726 -0.8045
vn 0.9060 -0.0657 -0.4180
vn 0.9096 -0.1948 -0.3671
vn 0.1690 -0.0527 -0.9842
vn 0.7771 -0.1592 0.6089
vn 0.7481 -0.2358 0.6203
vn 0.8752 -0.2934 -0.3846
vn -0.1117 0.0248 0.9934
vn -0.0969 0.0307 0.9948
vn -0.0880 0.0197 0.9959
vn 0.7561 -0.2443 0.6071
vn -0.9173 0.1897 0.3501
vn -0.8829 0.2587 0.3919
vn -0.8746 0.2503 0.4152
vn -0.8778 0.1900 0.4398
vn -0.0632 0.0013 0.9980
vn -0.7463 0.2005 -0.6347
vn -0.7760 0.2123 -0.5940
vn -0.8086 0.1782 -0.5607
vn -0.8383 0.1029 -0.5354
vn -0.8780 0.1218 0.4629
vn 0.0623 -0.0441 -0.9971
vn 0.0338 -0.0133 -0.9993
vn 0.0041 -0.0201 -0.9998
vn -0.0201 -0.1315 -0.9911
vn -0.8579 -0.0633 -0.5099
vn 0.8687 -0.2105 -0.4484
vn 0.8631 -0.1333 -0.4871
vn 0.8364 -0.0772 -0.5426
vn 0.8264 -0.1497 -0.5427
vn 0.0289 -0.3747 -0.9267
vn 0.8349 -0.1166 0.5380
vn 0.8699 0.0589 0.4898
vn 0.8910 0.2463 0.3815
vn 0.9046 0.2491 0.3459
vn 0.8411 -0.3830 -0.3819
vn -0.0262 0.1150 0.9930
vn -0.0212 0.3795 0.9250
vn 0.0285 0.6661 0.7453
vn 0.0849 0.8131 0.5759
vn 0.8943 0.1721 0.4130
vn -0.8729 0.1048 0.4764
vn -0.8681 0.3671 0.3342
vn -0.8204 0.5573 0.1280
vn -0.8197 0.5683 0.0716
vn -0.8085 -0.3459 -0.4761
vn -0.8332 -0.3179 -0.4524
vn 0.0824 -0.6515 -0.7542
vn 0.0251 -0.8349 -0.5499
vn 0.7980 -0.5860 -0.1410
vn -0.8342 -0.2715 -0.4800
vn -0.8740 0.0522 0.4831
vn -0.0340 0.0097 0.9994
vn 0.7946 -0.1970 0.5743
vn 0.8618 -0.2871 -0.4182
vn 0.1104 -0.0668 -0.9916
vn -0.7286 0.1393 -0.6706
vn -0.8274 0.4857 0.2821
vn 0.9435 -0.0149 0.3311
vn 0.7663 0.0135 -0.6423
vn 0.8439 0.0242 -0.5359
vn 0.8509 0.0802 -0.5192
vn 0.2882 0.0061 0.9575
vn 0.3304 0.2196 0.9180
vn 0.9395 0.2727 0.2075
vn -0.8247 0.0842 0.5592
vn -0.7639 -0.1073 0.6364
vn -0.6001 -0.2506 0.7597
vn 0.4448 0.1993 0.8732
vn -0.9431 0.0942 -0.3188
vn -0.9419 -0.2598 -0.2129
vn -0.9289 -0.3697 -0.0213
vn -0.9284 -0.3508 0.1222
vn -0.5198 -0.3439 0.7820
vn -0.4408 -0.2079 -0.8732
vn -0.4752 -0.1543 -0.8662
vn -0.5683 -0.0066 -0.8228
vn -0.5869 0.0155 -0.8095
vn -0.9053 -0.3502 0.2405
vn 0.6289 0.2750 -0.7273
vn 0.5109 0.3656 -0.7781
vn 0.4463 0.3611 -0.8188
vn 0.3863 0.2819 -0.8782
vn -0.6164 0.0968 -0.7815
vn 0.9163 0.3828 -0.1181
vn 0.8980 0.3746 -0.2309
vn 0.9169 0.2395 -0.3192
vn 0.9111 0.0704 -0.4060
vn 0.2733 0.2236 -0.9356
vn 0.6026 0.0238 0.7977
vn 0.6746 -0.0624 0.7356
vn 0.7007 -0.1945 0.6865
vn 0.6874 -0.3127 0.6555
vn 0.8834 -0.0355 -0.4673
vn -0.3485 -0.2675 0.8983
vn -0.2452 -0.2069 0.9472
vn -0.1965 -0.2320 0.9527
vn -0.2884 -0.3375 0.8961
vn 0.6272 -0.4854 0.6091
vn -0.9018 -0.0397 0.4303
vn -0.9007 0.0242 0.4337
vn -0.6633 0.2143 -0.7170
vn -0.7160 0.2552 -0.6498
vn 0.1051 0.2179 -0.9703
vn 0.8387 -0.1448 -0.5250
vn 0.6797 -0.4256 -0.5974
vn -0.9124 -0.2154 0.3481
vn -0.4386 -0.3428 0.8307
vn 0.5330 0.0504 0.8446
vn 0.9196 0.3913 0.0348
vn 0.6870 0.0839 -0.7218
vn -0.3665 0.0753 -0.9274
vn -0.8983 0.3118 -0.3097
vn -0.1537 0.3262 -0.9327
vn -0.8758 0.2602 -0.4065
vn -0.0369 0.4504 -0.8921
vn -0.7741 0.0488 -0.6311
vn -0.0293 0.4972 -0.8671
vn 0.8224 0.3143 -0.4741
vn 0.0473 0.4094 -0.9111
vn 0.7973 0.5034 -0.3331
vn 0.1968 0.3600 -0.9120
vn 0.8193 0.5388 -0.1958
vn -0.5197 -0.1127 -0.8469
vn -0.7653 -0.0198 0.6434
vn -0.7308 -0.0559 0.6803
vn 0.4736 0.6265 0.6191
vn -0.5005 -0.6146 -0.6097
vn -0.5353 -0.3689 -0.7598
vn -0.7174 -0.0398 0.6955
vn 0.7555 0.1147 -0.6451
vn 0.8325 0.0910 -0.5465
vn 0.8420 -0.1271 -0.5243
vn -0.5080 -0.1107 -0.8542
vn 0.5779 0.3582 0.7332
vn 0.6141 0.0945 0.7836
vn 0.5617 0.0952 0.8218
vn 0.8013 -0.3641 -0.4747
vn -0.7959 0.1480 0.5870
vn -0.8226 0.3794 0.4236
vn -0.7884 0.5103 0.3435
vn 0.4886 0.1586 0.8579
vn -0.4819 -0.1089 -0.8694
vn -0.4297 -0.1660 -0.8876
vn -0.3365 -0.1229 -0.9336
vn -0.7797 0.5681 0.2633
vn 0.8144 -0.4817 -0.3238
vn 0.8185 -0.5374 -0.2031
vn 0.8471 -0.5133 -0.1376
vn -0.2586 -0.0437 -0.9650
vn 0.3730 0.1257 0.9193
vn 0.2136 0.0836 0.9733
vn 0.0709 0.0980 0.9927
vn 0.9211 -0.3542 -0.1614
vn -0.8250 0.5321 0.1905
vn -0.9405 0.3215 0.1102
vn -0.9907 -0.0453 0.1284
vn 0.0322 0.0264 0.9991
vn -0.2523 -0.0537 -0.9662
vn -0.1964 -0.2460 -0.9492
vn 0.9716 -0.1745 -0.1600
s 1
usemtl Scene_-_Root
f 1//1 2//2 3//3
f 1//1 3//3 4//4
f 1//1 5//5 6//6
f 1//1 6//6 2//2
f 1//1 4//4 7//7
f 1//1 7//7 8//8
f 9//9 10//10 11//11
f 9//9 11//11 12//12
f 9//9 12//12 13//13
f 9//9 13//13 14//14
f 9//9 14//14 15//15
f 9//9 15//15 10//10
f 10//10 15//15 16//16
f 10//10 16//16 11//11
f 17//17 18//18 19//19
f 17//17 19//19 20//20
f 17//17 21//21 22//22
f 17//17 22//22 18//18
f 17//17 20//20 23//23
f 17//17 23//23 21//21
f 24//24 25//25 26//26
f 24//24 26//26 27//27
f 24//24 27//27 28//28
f 24//24 28//28 29//29
f 24//24 30//30 31//31
f 24//24 31//31 32//32
f 24//24 29//29 33//33
f 24//24 33//33 30//30
f 24//24 32//32 34//34
f 24//24 34//34 25//25
f 35//35 20//20 19//19
f 35//35 19//19 36//36
f 35//35 36//36 37//37
f 35//35 37//37 38//38
f 35//35 38//38 23//23
f 35//35 23//23 20//20
f 39//39 40//40 41//41
f 39//39 41//41 42//42
f 43//43 44//44 40//40
f 43//43 40//40 39//39
f 39//39 42//42 45//45
f 39//39 45//45 43//43
f 12//12 11//11 16//16
f 12//12 16//16 13//13
f 43//43 45//45 46//46
f 43//43 46//46 47//47
f 43//43 47//47 48//48
f 43//43 48//48 49//49
f 43//43 49//49 50//50
f 43//43 50//50 51//51
f 52//52 53//53 54//54
f 52//52 54//54 55//55
f 56//56 52//52 55//55
f 56//56 55//55 57//57
f 56//56 58//58 53//53
f 56//56 53//53 52//52
f 56//56 57//57 59//59
f 56//56 59//59 58//58
f 5//5 60//60 61//61
f 5//5 61//61 62//62
f 5//5 62//62 63//63
f 5//5 63//63 64//64
f 5//5 1//1 65//65
f 5//5 65//65 60//60
f 1//1 8//8 66//66
f 1//1 66//66 67//67
f 68//68 69//69 70//70
f 68//68 70//70 71//71
f 68//68 72//72 73//73
f 68//68 73//73 69//69
f 68//68 71//71 74//74
f 68//68 74//74 72//72
f 73//73 75//75 76//76
f 73//73 76//76 69//69
f 73//73 72//72 77//77
f 73//73 77//77 75//75
f 45//45 42//42 78//78
f 45//45 78//78 26//26
f 45//45 26//26 25//25
f 45//45 25//25 79//79
f 45//45 79//79 30//30
f 45//45 30//30 46//46
f 46//46 80//80 81//81
f 46//46 81//81 82//82
f 46//46 82//82 83//83
f 46//46 83//83 47//47
f 46//46 30//30 33//33
f 46//46 33//33 80//80
f 60//60 84//84 85//85
f 60//60 85//85 61//61
f 60//60 65//65 86//86
f 60//60 86//86 41//41
f 60//60 41//41 40//40
f 60//60 40//40 84//84
f 67//67 87//87 88//88
f 67//67 88//88 89//89
f 67//67 89//89 65//65
f 67//67 65//65 1//1
f 67//67 90//90 91//91
f 67//67 91//91 87//87
f 54//54 53//53 92//92
f 54//54 92//92 93//93
f 54//54 93//93 94//94
f 54//54 94//94 55//55
f 27//27 26//26 78//78
f 27//27 78//78 95//95
f 27//27 95//95 96//96
f 27//27 96//96 97//97
f 27//27 97//97 98//98
f 27//27 98//98 28//28
f 99//99 100//100 101//101
f 99//99 101//101 102//102
f 99//99 103//103 104//104
f 99//99 104//104 100//100
f 99//99 102//102 105//105
f 99//99 105//105 103//103
f 106//106 107//107 108//108
f 106//106 108//108 109//109
f 106//106 110//110 111//111
f 106//106 111//111 107//107
f 106//106 109//109 112//112
f 106//106 112//112 110//110
f 113//113 114//114 115//115
f 113//113 115//115 116//116
f 113//113 117//117 118//118
f 113//113 118//118 114//114
f 113//113 116//116 119//119
f 113//113 119//119 117//117
f 120//120 121//121 122//122
f 120//120 122//122 123//123
f 120//120 123//123 124//124
f 120//120 124//124 125//125
f 120//120 125//125 126//126
f 120//120 126//126 121//121
f 126//126 125//125 102//102
f 126//126 102//102 101//101
f 126//126 101//101 115//115
f 126//126 115//115 127//127
f 126//126 127//127 128//128
f 126//126 128//128 121//121
f 128//128 129//129 122//122
f 128//128 122//122 121//121
f 128//128 127//127 130//130
f 128//128 130//130 108//108
f 128//128 108//108 107//107
f 128//128 107//107 129//129
f 130//130 127//127 115//115
f 130//130 115//115 114//114
f 130//130 114//114 118//118
f 130//130 118//118 131//131
f 130//130 131//131 109//109
f 130//130 109//109 108//108
f 131//131 132//132 112//112
f 131//131 112//112 109//109
f 131//131 118//118 133//133
f 131//131 133//133 132//132
f 133//133 134//134 135//135
f 133//133 135//135 132//132
f 133//133 118//118 117//117
f 133//133 117//117 136//136
f 133//133 136//136 137//137
f 133//133 137//137 134//134
f 137//137 138//138 139//139
f 137//137 139//139 134//134
f 137//137 136//136 140//140
f 137//137 140//140 141//141
f 137//137 141//141 142//142
f 137//137 142//142 138//138
f 142//142 143//143 144//144
f 142//142 144//144 138//138
f 142//142 141//141 145//145
f 142//142 145//145 146//146
f 142//142 146//146 147//147
f 142//142 147//147 143//143
f 147//147 148//148 149//149
f 147//147 149//149 143//143
f 147//147 146//146 150//150
f 147//147 150//150 151//151
f 147//147 151//151 152//152
f 147//147 152//152 148//148
f 152//152 153//153 154//154
f 152//152 154//154 148//148
f 152//152 151//151 155//155
f 152//152 155//155 156//156
f 152//152 156//156 157//157
f 152//152 157//157 153//153
f 157//157 158//158 159//159
f 157//157 159//159 153//153
f 157//157 156//156 160//160
f 157//157 160//160 161//161
f 157//157 161//161 162//162
f 157//157 162//162 158//158
f 162//162 163//163 164//164
f 162//162 164//164 158//158
f 162//162 161//161 165//165
f 162//162 165//165 166//166
f 162//162 166//166 167//167
f 162//162 167//167 163//163
f 167//167 168//168 169//169
f 167//167 169//169 163//163
f 167//167 166//166 170//170
f 167//167 170//170 171//171
f 167//167 171//171 172//172
f 167//167 172//172 168//168
f 172//172 173//173 174//174
f 172//172 174//174 168//168
f 172//172 171//171 175//175
f 172//172 175//175 176//176
f 172//172 176//176 177//177
f 172//172 177//177 173//173
f 177//177 178//178 179//179
f 177//177 179//179 173//173
f 177//177 176//176 180//180
f 177//177 180//180 181//181
f 177//177 181//181 182//182
f 177//177 182//182 178//178
f 182//182 183//183 184//184
f 182//182 184//184 178//178
f 182//182 181//181 185//185
f 182//182 185//185 186//186
f 182//182 186//186 187//187
f 182//182 187//187 183//183
f 187//187 188//188 189//189
f 187//187 189//189 183//183
f 187//187 186//186 190//190
f 187//187 190//190 191//191
f 187//187 191//191 192//192
f 187//187 192//192 188//188
f 192//192 193//193 194//194
f 192//192 194//194 188//188
f 192//192 191//191 195//195
f 192//192 195//195 196//196
f 192//192 196//196 197//197
f 192//192 197//197 193//193
f 197//197 198//198 199//199
f 197//197 199//199 193//193
f 197//197 196//196 200//200
f 197//197 200//200 201//201
f 197//197 201//201 202//202
f 197//197 202//202 198//198
f 202//202 203//203 204//204
f 202//202 204//204 198//198
f 202//202 201//201 205//205
f 202//202 205//205 206//206
f 202//202 206//206 207//207
f 202//202 207//207 203//203
f 207//207 208//208 209//209
f 207//207 209//209 203//203
f 207//207 206//206 210//210
f 207//207 210//210 66//66
f 207//207 66//66 8//8
f 207//207 8//8 208//208
f 210//210 206//206 205//205
f 210//210 205//205 211//211
f 210//210 211//211 212//212
f 210//210 212//212 90//90
f 210//210 90//90 67//67
f 210//210 67//67 66//66
f 212//212 211//211 213//213
f 212//212 213//213 214//214
f 212//212 214//214 215//215
f 212//212 215//215 216//216
f 212//212 216//216 91//91
f 212//212 91//91 90//90
f 216//216 215//215 217//217
f 216//216 217//217 218//218
f 216//216 218//218 219//219
f 216//216 219//219 91//91
f 219//219 220//220 87//87
f 219//219 87//87 91//91
f 219//219 218//218 221//221
f 219//219 221//221 222//222
f 219//219 222//222 223//223
f 219//219 223//223 220//220
f 223//223 82//82 81//81
f 223//223 81//81 220//220
f 223//223 222//222 224//224
f 223//223 224//224 225//225
f 223//223 225//225 83//83
f 223//223 83//83 82//82
f 225//225 224//224 226//226
f 225//225 226//226 227//227
f 225//225 227//227 228//228
f 225//225 228//228 83//83
f 228//228 48//48 47//47
f 228//228 47//47 83//83
f 228//228 227//227 229//229
f 228//228 229//229 230//230
f 228//228 230//230 231//231
f 228//228 231//231 48//48
f 231//231 232//232 49//49
f 231//231 49//49 48//48
f 231//231 230//230 61//61
f 231//231 61//61 85//85
f 231//231 85//85 233//233
f 231//231 233//233 232//232
f 233//233 234//234 235//235
f 233//233 235//235 232//232
f 233//233 85//85 84//84
f 233//233 84//84 236//236
f 233//233 236//236 237//237
f 233//233 237//237 234//234
f 237//237 238//238 239//239
f 237//237 239//239 234//234
f 237//237 236//236 44//44
f 237//237 44//44 240//240
f 237//237 240//240 241//241
f 237//237 241//241 238//238
f 241//241 242//242 243//243
f 241//241 243//243 238//238
f 241//241 240//240 51//51
f 241//241 51//51 244//244
f 241//241 244//244 245//245
f 241//241 245//245 242//242
f 245//245 246//246 247//247
f 245//245 247//247 242//242
f 245//245 244//244 248//248
f 245//245 248//248 249//249
f 245//245 249//249 250//250
f 245//245 250//250 246//246
f 250//250 251//251 252//252
f 250//250 252//252 246//246
f 250//250 249//249 253//253
f 250//250 253//253 254//254
f 250//250 254//254 255//255
f 250//250 255//255 251//251
f 255//255 256//256 257//257
f 255//255 257//257 251//251
f 255//255 254//254 258//258
f 255//255 258//258 259//259
f 255//255 259//259 260//260
f 255//255 260//260 256//256
f 260//260 261//261 262//262
f 260//260 262//262 256//256
f 260//260 259//259 263//263
f 260//260 263//263 264//264
f 260//260 264//264 265//265
f 260//260 265//265 261//261
f 265//265 266//266 267//267
f 265//265 267//267 261//261
f 265//265 264//264 268//268
f 265//265 268//268 269//269
f 265//265 269//269 77//77
f 265//265 77//77 266//266
f 269//269 268//268 270//270
f 269//269 270//270 271//271
f 269//269 271//271 75//75
f 269//269 75//75 77//77
f 271//271 270//270 257//257
f 271//271 257//257 272//272
f 271//271 272//272 76//76
f 271//271 76//76 75//75
f 272//272 257//257 256//256
f 272//272 256//256 262//262
f 272//272 262//262 273//273
f 272//272 273//273 76//76
f 273//273 70//70 69//69
f 273//273 69//69 76//76
f 273//273 262//262 261//261
f 273//273 261//261 267//267
f 273//273 267//267 274//274
f 273//273 274//274 70//70
f 270//270 268//268 275//275
f 270//270 275//275 252//252
f 270//270 252//252 251//251
f 270//270 251//251 257//257
f 275//275 268//268 264//264
f 275//275 264//264 263//263
f 275//275 263//263 276//276
f 275//275 276//276 247//247
f 275//275 247//247 246//246
f 275//275 246//246 252//252
f 276//276 263//263 259//259
f 276//276 259//259 258//258
f 276//276 258//258 277//277
f 276//276 277//277 243//243
f 276//276 243//243 242//242
f 276//276 242//242 247//247
f 277//277 258//258 254//254
f 277//277 254//254 253//253
f 277//277 253//253 278//278
f 277//277 278//278 239//239
f 277//277 239//239 238//238
f 277//277 238//238 243//243
f 278//278 253//253 249//249
f 278//278 249//249 248//248
f 278//278 248//248 50//50
f 278//278 50//50 235//235
f 278//278 235//235 234//234
f 278//278 234//234 239//239
f 267//267 266//266 74//74
f 267//267 74//74 274//274
f 266//266 77//77 72//72
f 266//266 72//72 74//74
f 248//248 244//244 51//51
f 248//248 51//51 50//50
f 240//240 44//44 43//43
f 240//240 43//43 51//51
f 236//236 84//84 40//40
f 236//236 40//40 44//44
f 235//235 50//50 49//49
f 235//235 49//49 232//232
f 230//230 229//229 62//62
f 230//230 62//62 61//61
f 229//229 227//227 226//226
f 229//229 226//226 279//279
f 229//229 279//279 63//63
f 229//229 63//63 62//62
f 279//279 226//226 280//280
f 279//279 280//280 281//281
f 279//279 281//281 282//282
f 279//279 282//282 63//63
f 282//282 281//281 283//283
f 282//282 283//283 189//189
f 282//282 189//189 188//188
f 282//282 188//188 194//194
f 282//282 194//194 64//64
f 282//282 64//64 63//63
f 283//283 281//281 280//280
f 283//283 280//280 284//284
f 283//283 284//284 285//285
f 283//283 285//285 184//184
f 283//283 184//184 183//183
f 283//283 183//183 189//189
f 285//285 284//284 286//286
f 285//285 286//286 287//287
f 285//285 287//287 288//288
f 285//285 288//288 179//179
f 285//285 179//179 178//178
f 285//285 178//178 184//184
f 288//288 287//287 289//289
f 288//288 289//289 290//290
f 288//288 290//290 291//291
f 288//288 291//291 174//174
f 288//288 174//174 173//173
f 288//288 173//173 179//179
f 291//291 290//290 292//292
f 291//291 292//292 293//293
f 291//291 293//293 294//294
f 291//291 294//294 169//169
f 291//291 169//169 168//168
f 291//291 168//168 174//174
f 294//294 293//293 295//295
f 294//294 295//295 296//296
f 294//294 296//296 297//297
f 294//294 297//297 164//164
f 294//294 164//164 163//163
f 294//294 163//163 169//169
f 297//297 296//296 298//298
f 297//297 298//298 299//299
f 297//297 299//299 300//300
f 297//297 300//300 159//159
f 297//297 159//159 158//158
f 297//297 158//158 164//164
f 300//300 299//299 301//301
f 300//300 301//301 302//302
f 300//300 302//302 303//303
f 300//300 303//303 154//154
f 300//300 154//154 153//153
f 300//300 153//153 159//159
f 303//303 302//302 304//304
f 303//303 304//304 305//305
f 303//303 305//305 306//306
f 303//303 306//306 149//149
f 303//303 149//149 148//148
f 303//303 148//148 154//154
f 306//306 305//305 307//307
f 306//306 307//307 308//308
f 306//306 308//308 309//309
f 306//306 309//309 144//144
f 306//306 144//144 143//143
f 306//306 143//143 149//149
f 309//309 308//308 310//310
f 309//309 310//310 311//311
f 309//309 311//311 312//312
f 309//309 312//312 139//139
f 309//309 139//139 138//138
f 309//309 138//138 144//144
f 312//312 311//311 313//313
f 312//312 313//313 314//314
f 312//312 314//314 315//315
f 312//312 315//315 135//135
f 312//312 135//135 134//134
f 312//312 134//134 139//139
f 315//315 314//314 316//316
f 315//315 316//316 317//317
f 315//315 317//317 110//110
f 315//315 110//110 112//112
f 315//315 112//112 132//132
f 315//315 132//132 135//135
f 317//317 316//316 318//318
f 317//317 318//318 319//319
f 317//317 319//319 111//111
f 317//317 111//111 110//110
f 319//319 318//318 320//320
f 319//319 320//320 321//321
f 319//319 321//321 322//322
f 319//319 322//322 111//111
f 322//322 321//321 323//323
f 322//322 323//323 324//324
f 322//322 324//324 122//122
f 322//322 122//122 129//129
f 322//322 129//129 107//107
f 322//322 107//107 111//111
f 324//324 323//323 325//325
f 324//324 325//325 326//326
f 324//324 326//326 123//123
f 324//324 123//123 122//122
f 326//326 325//325 327//327
f 326//326 327//327 328//328
f 326//326 328//328 124//124
f 326//326 124//124 123//123
f 328//328 327//327 329//329
f 328//328 329//329 330//330
f 328//328 330//330 105//105
f 328//328 105//105 124//124
f 330//330 329//329 331//331
f 330//330 331//331 332//332
f 330//330 332//332 103//103
f 330//330 103//103 105//105
f 332//332 331//331 145//145
f 332//332 145//145 333//333
f 332//332 333//333 104//104
f 332//332 104//104 103//103
f 333//333 145//145 141//141
f 333//333 141//141 140//140
f 333//333 140//140 119//119
f 333//333 119//119 104//104
f 331//331 150//150 146//146
f 331//331 146//146 145//145
f 331//331 329//329 334//334
f 331//331 334//334 150//150
f 334//334 155//155 151//151
f 334//334 151//151 150//150
f 334//334 329//329 327//327
f 334//334 327//327 335//335
f 334//334 335//335 336//336
f 334//334 336//336 155//155
f 336//336 160//160 156//156
f 336//336 156//156 155//155
f 336//336 335//335 337//337
f 336//336 337//337 338//338
f 336//336 338//338 339//339
f 336//336 339//339 160//160
f 339//339 165//165 161//161
f 339//339 161//161 160//160
f 339//339 338//338 340//340
f 339//339 340//340 341//341
f 339//339 341//341 342//342
f 339//339 342//342 165//165
f 342//342 170//170 166//166
f 342//342 166//166 165//165
f 342//342 341//341 343//343
f 342//342 343//343 344//344
f 342//342 344//344 345//345
f 342//342 345//345 170//170
f 345//345 175//175 171//171
f 345//345 171//171 170//170
f 345//345 344//344 346//346
f 345//345 346//346 347//347
f 345//345 347//347 348//348
f 345//345 348//348 175//175
f 348//348 180//180 176//176
f 348//348 176//176 175//175
f 348//348 347//347 349//349
f 348//348 349//349 350//350
f 348//348 350//350 351//351
f 348//348 351//351 180//180
f 351//351 185//185 181//181
f 351//351 181//181 180//180
f 351//351 350//350 352//352
f 351//351 352//352 353//353
f 351//351 353//353 354//354
f 351//351 354//354 185//185
f 354//354 190//190 186//186
f 354//354 186//186 185//185
f 354//354 353//353 355//355
f 354//354 355//355 356//356
f 354//354 356//356 357//357
f 354//354 357//357 190//190
f 357//357 195//195 191//191
f 357//357 191//191 190//190
f 357//357 356//356 358//358
f 357//357 358//358 359//359
f 357//357 359//359 360//360
f 357//357 360//360 195//195
f 360//360 200//200 196//196
f 360//360 196//196 195//195
f 360//360 359//359 361//361
f 360//360 361//361 362//362
f 360//360 362//362 363//363
f 360//360 363//363 200//200
f 363//363 205//205 201//201
f 363//363 201//201 200//200
f 363//363 362//362 364//364
f 363//363 364//364 213//213
f 363//363 213//213 211//211
f 363//363 211//211 205//205
f 364//364 362//362 361//361
f 364//364 361//361 365//365
f 364//364 365//365 366//366
f 364//364 366//366 367//367
f 364//364 367//367 214//214
f 364//364 214//214 213//213
f 367//367 366//366 368//368
f 367//367 368//368 369//369
f 367//367 369//369 215//215
f 367//367 215//215 214//214
f 369//369 368//368 292//292
f 369//369 292//292 370//370
f 369//369 370//370 217//217
f 369//369 217//217 215//215
f 370//370 292//292 290//290
f 370//370 290//290 289//289
f 370//370 289//289 371//371
f 370//370 371//371 217//217
f 371//371 221//221 218//218
f 371//371 218//218 217//217
f 371//371 289//289 287//287
f 371//371 287//287 286//286
f 371//371 286//286 372//372
f 371//371 372//372 221//221
f 372//372 224//224 222//222
f 372//372 222//222 221//221
f 372//372 286//286 284//284
f 372//372 284//284 280//280
f 372//372 280//280 226//226
f 372//372 226//226 224//224
f 368//368 366//366 373//373
f 368//368 373//373 295//295
f 368//368 295//295 293//293
f 368//368 293//293 292//292
f 373//373 366//366 365//365
f 373//373 365//365 374//374
f 373//373 374//374 375//375
f 373//373 375//375 298//298
f 373//373 298//298 296//296
f 373//373 296//296 295//295
f 375//375 374//374 376//376
f 375//375 376//376 377//377
f 375//375 377//377 378//378
f 375//375 378//378 301//301
f 375//375 301//301 299//299
f 375//375 299//299 298//298
f 378//378 377//377 379//379
f 378//378 379//379 380//380
f 378//378 380//380 381//381
f 378//378 381//381 304//304
f 378//378 304//304 302//302
f 378//378 302//302 301//301
f 381//381 380//380 382//382
f 381//381 382//382 383//383
f 381//381 383//383 384//384
f 381//381 384//384 307//307
f 381//381 307//307 305//305
f 381//381 305//305 304//304
f 384//384 383//383 385//385
f 384//384 385//385 386//386
f 384//384 386//386 387//387
f 384//384 387//387 310//310
f 384//384 310//310 308//308
f 384//384 308//308 307//307
f 387//387 386//386 388//388
f 387//387 388//388 389//389
f 387//387 389//389 390//390
f 387//387 390//390 313//313
f 387//387 313//313 311//311
f 387//387 311//311 310//310
f 390//390 389//389 391//391
f 390//390 391//391 392//392
f 390//390 392//392 318//318
f 390//390 318//318 316//316
f 390//390 316//316 314//314
f 390//390 314//314 313//313
f 392//392 391//391 343//343
f 392//392 343//343 393//393
f 392//392 393//393 320//320
f 392//392 320//320 318//318
f 393//393 343//343 341//341
f 393//393 341//341 340//340
f 393//393 340//340 394//394
f 393//393 394//394 320//320
f 394//394 340//340 338//338
f 394//394 338//338 337//337
f 394//394 337//337 325//325
f 394//394 325//325 323//323
f 394//394 323//323 321//321
f 394//394 321//321 320//320
f 391//391 346//346 344//344
f 391//391 344//344 343//343
f 391//391 389//389 388//388
f 391//391 388//388 346//346
f 388//388 349//349 347//347
f 388//388 347//347 346//346
f 388//388 386//386 385//385
f 388//388 385//385 349//349
f 385//385 352//352 350//350
f 385//385 350//350 349//349
f 385//385 383//383 382//382
f 385//385 382//382 352//352
f 382//382 355//355 353//353
f 382//382 353//353 352//352
f 382//382 380//380 379//379
f 382//382 379//379 355//355
f 379//379 358//358 356//356
f 379//379 356//356 355//355
f 379//379 377//377 376//376
f 379//379 376//376 358//358
f 376//376 361//361 359//359
f 376//376 359//359 358//358
f 376//376 374//374 365//365
f 376//376 365//365 361//361
f 337//337 335//335 327//327
f 337//337 327//327 325//325
f 220//220 81//81 88//88
f 220//220 88//88 87//87
f 209//209 395//395 396//396
f 209//209 396//396 397//397
f 209//209 397//397 204//204
f 209//209 204//204 203//203
f 209//209 208//208 398//398
f 209//209 398//398 395//395
f 398//398 399//399 400//400
f 398//398 400//400 395//395
f 398//398 208//208 8//8
f 398//398 8//8 7//7
f 398//398 7//7 401//401
f 398//398 401//401 399//399
f 401//401 402//402 403//403
f 401//401 403//403 399//399
f 401//401 7//7 4//4
f 401//401 4//4 404//404
f 401//401 404//404 405//405
f 401//401 405//405 402//402
f 405//405 406//406 407//407
f 405//405 407//407 402//402
f 405//405 404//404 408//408
f 405//405 408//408 409//409
f 405//405 409//409 410//410
f 405//405 410//410 406//406
f 410//410 411//411 412//412
f 410//410 412//412 406//406
f 410//410 409//409 413//413
f 410//410 413//413 414//414
f 410//410 414//414 415//415
f 410//410 415//415 411//411
f 415//415 416//416 417//417
f 415//415 417//417 411//411
f 415//415 414//414 418//418
f 415//415 418//418 419//419
f 415//415 419//419 420//420
f 415//415 420//420 416//416
f 420//420 421//421 422//422
f 420//420 422//422 416//416
f 420//420 419//419 423//423
f 420//420 423//423 424//424
f 420//420 424//424 425//425
f 420//420 425//425 421//421
f 425//425 426//426 427//427
f 425//425 427//427 421//421
f 425//425 424//424 428//428
f 425//425 428//428 429//429
f 425//425 429//429 430//430
f 425//425 430//430 426//426
f 430//430 431//431 432//432
f 430//430 432//432 426//426
f 430//430 429//429 433//433
f 430//430 433//433 434//434
f 430//430 434//434 435//435
f 430//430 435//435 431//431
f 435//435 436//436 437//437
f 435//435 437//437 431//431
f 435//435 434//434 438//438
f 435//435 438//438 439//439
f 435//435 439//439 440//440
f 435//435 440//440 436//436
f 440//440 441//441 37//37
f 440//440 37//37 436//436
f 440//440 439//439 442//442
f 440//440 442//442 443//443
f 440//440 443//443 22//22
f 440//440 22//22 441//441
f 443//443 442//442 444//444
f 443//443 444//444 445//445
f 443//443 445//445 18//18
f 443//443 18//18 22//22
f 445//445 444//444 432//432
f 445//445 432//432 446//446
f 445//445 446//446 19//19
f 445//445 19//19 18//18
f 446//446 432//432 431//431
f 446//446 431//431 437//437
f 446//446 437//437 36//36
f 446//446 36//36 19//19
f 444//444 442//442 447//447
f 444//444 447//447 427//427
f 444//444 427//427 426//426
f 444//444 426//426 432//432
f 447//447 442//442 439//439
f 447//447 439//439 438//438
f 447//447 438//438 448//448
f 447//447 448//448 422//422
f 447//447 422//422 421//421
f 447//447 421//421 427//427
f 448//448 438//438 434//434
f 448//448 434//434 433//433
f 448//448 433//433 449//449
f 448//448 449//449 417//417
f 448//448 417//417 416//416
f 448//448 416//416 422//422
f 449//449 433//433 429//429
f 449//449 429//429 428//428
f 449//449 428//428 450//450
f 449//449 450//450 412//412
f 449//449 412//412 411//411
f 449//449 411//411 417//417
f 450//450 428//428 424//424
f 450//450 424//424 423//423
f 450//450 423//423 451//451
f 450//450 451//451 407//407
f 450//450 407//407 406//406
f 450//450 406//406 412//412
f 451//451 423//423 419//419
f 451//451 419//419 418//418
f 451//451 418//418 452//452
f 451//451 452//452 403//403
f 451//451 403//403 402//402
f 451//451 402//402 407//407
f 452//452 418//418 414//414
f 452//452 414//414 413//413
f 452//452 413//413 453//453
f 452//452 453//453 400//400
f 452//452 400//400 399//399
f 452//452 399//399 403//403
f 453//453 413//413 409//409
f 453//453 409//409 408//408
f 453//453 408//408 3//3
f 453//453 3//3 396//396
f 453//453 396//396 395//395
f 453//453 395//395 400//400
f 441//441 454//454 38//38
f 441//441 38//38 37//37
f 441//441 22//22 21//21
f 441//441 21//21 454//454
f 437//437 436//436 37//37
f 437//437 37//37 36//36
f 408//408 404//404 4//4
f 408//408 4//4 3//3
f 397//397 396//396 3//3
f 397//397 3//3 2//2
f 397//397 2//2 6//6
f 397//397 6//6 204//204
f 204//204 6//6 199//199
f 204//204 199//199 198//198
f 199//199 6//6 5//5
f 199//199 5//5 64//64
f 199//199 64//64 194//194
f 199//199 194//194 193//193
f 140//140 136//136 117//117
f 140//140 117//117 119//119
f 125//125 124//124 105//105
f 125//125 105//105 102//102
f 119//119 116//116 100//100
f 119//119 100//100 104//104
f 116//116 115//115 101//101
f 116//116 101//101 100//100
f 98//98 455//455 456//456
f 98//98 456//456 457//457
f 98//98 457//457 458//458
f 98//98 458//458 28//28
f 98//98 97//97 459//459
f 98//98 459//459 455//455
f 459//459 460//460 461//461
f 459//459 461//461 455//455
f 459//459 97//97 96//96
f 459//459 96//96 462//462
f 459//459 462//462 463//463
f 459//459 463//463 460//460
f 463//463 464//464 465//465
f 463//463 465//465 460//460
f 463//463 462//462 466//466
f 463//463 466//466 467//467
f 463//463 467//467 468//468
f 463//463 468//468 464//464
f 468//468 469//469 470//470
f 468//468 470//470 464//464
f 468//468 467//467 471//471
f 468//468 471//471 472//472
f 468//468 472//472 473//473
f 468//468 473//473 469//469
f 473//473 474//474 475//475
f 473//473 475//475 469//469
f 473//473 472//472 476//476
f 473//473 476//476 477//477
f 473//473 477//477 478//478
f 473//473 478//478 474//474
f 478//478 479//479 480//480
f 478//478 480//480 474//474
f 478//478 477//477 481//481
f 478//478 481//481 482//482
f 478//478 482//482 483//483
f 478//478 483//483 479//479
f 483//483 484//484 485//485
f 483//483 485//485 479//479
f 483//483 482//482 486//486
f 483//483 486//486 487//487
f 483//483 487//487 488//488
f 483//483 488//488 484//484
f 488//488 489//489 490//490
f 488//488 490//490 484//484
f 488//488 487//487 491//491
f 488//488 491//491 492//492
f 488//488 492//492 493//493
f 488//488 493//493 489//489
f 493//493 494//494 495//495
f 493//493 495//495 489//489
f 493//493 492//492 496//496
f 493//493 496//496 497//497
f 493//493 497//497 92//92
f 493//493 92//92 494//494
f 497//497 496//496 498//498
f 497//497 498//498 499//499
f 497//497 499//499 93//93
f 497//497 93//93 92//92
f 499//499 498//498 485//485
f 499//499 485//485 500//500
f 499//499 500//500 94//94
f 499//499 94//94 93//93
f 500//500 485//485 484//484
f 500//500 484//484 490//490
f 500//500 490//490 501//501
f 500//500 501//501 94//94
f 501//501 502//502 55//55
f 501//501 55//55 94//94
f 501//501 490//490 489//489
f 501//501 489//489 495//495
f 501//501 495//495 59//59
f 501//501 59//59 502//502
f 498//498 496//496 503//503
f 498//498 503//503 480//480
f 498//498 480//480 479//479
f 498//498 479//479 485//485
f 503//503 496//496 492//492
f 503//503 492//492 491//491
f 503//503 491//491 504//504
f 503//503 504//504 475//475
f 503//503 475//475 474//474
f 503//503 474//474 480//480
f 504//504 491//491 487//487
f 504//504 487//487 486//486
f 504//504 486//486 505//505
f 504//504 505//505 470//470
f 504//504 470//470 469//469
f 504//504 469//469 475//475
f 505//505 486//486 482//482
f 505//505 482//482 481//481
f 505//505 481//481 506//506
f 505//505 506//506 465//465
f 505//505 465//465 464//464
f 505//505 464//464 470//470
f 506//506 481//481 477//477
f 506//506 477//477 476//476
f 506//506 476//476 507//507
f 506//506 507//507 461//461
f 506//506 461//461 460//460
f 506//506 460//460 465//465
f 507//507 476//476 472//472
f 507//507 472//472 471//471
f 507//507 471//471 508//508
f 507//507 508//508 456//456
f 507//507 456//456 455//455
f 507//507 455//455 461//461
f 508//508 471//471 467//467
f 508//508 467//467 466//466
f 508//508 466//466 509//509
f 508//508 509//509 510//510
f 508//508 510//510 457//457
f 508//508 457//457 456//456
f 510//510 509//509 511//511
f 510//510 511//511 512//512
f 510//510 512//512 458//458
f 510//510 458//458 457//457
f 512//512 511//511 513//513
f 512//512 513//513 514//514
f 512//512 514//514 515//515
f 512//512 515//515 458//458
f 515//515 514//514 516//516
f 515//515 516//516 517//517
f 515//515 517//517 33//33
f 515//515 33//33 29//29
f 515//515 29//29 28//28
f 515//515 28//28 458//458
f 517//517 516//516 518//518
f 517//517 518//518 519//519
f 517//517 519//519 80//80
f 517//517 80//80 33//33
f 519//519 518//518 89//89
f 519//519 89//89 88//88
f 519//519 88//88 81//81
f 519//519 81//81 80//80
f 518//518 516//516 520//520
f 518//518 520//520 86//86
f 518//518 86//86 65//65
f 518//518 65//65 89//89
f 520//520 513//513 78//78
f 520//520 78//78 42//42
f 520//520 42//42 41//41
f 520//520 41//41 86//86
f 520//520 516//516 514//514
f 520//520 514//514 513//513
f 513//513 511//511 95//95
f 513//513 95//95 78//78
f 511//511 509//509 96//96
f 511//511 96//96 95//95
f 509//509 466//466 462//462
f 509//509 462//462 96//96
f 495//495 494//494 58//58
f 495//495 58//58 59//59
f 494//494 92//92 53//53
f 494//494 53//53 58//58
f 79//79 521//521 31//31
f 79//79 31//31 30//30
f 79//79 25//25 34//34
f 79//79 34//34 521//521
f 521//521 522//522 523//523
f 521//521 523//523 31//31
f 521//521 34//34 524//524
f 521//521 524//524 522//522
f 524//524 525//525 526//526
f 524//524 526//526 522//522
f 524//524 34//34 32//32
f 524//524 32//32 527//527
f 524//524 527//527 528//528
f 524//524 528//528 525//525
f 528//528 529//529 530//530
f 528//528 530//530 525//525
f 528//528 527//527 523//523
f 528//528 523//523 531//531
f 528//528 531//531 532//532
f 528//528 532//532 529//529
f 532//532 533//533 534//534
f 532//532 534//534 529//529
f 532//532 531//531 526//526
f 532//532 526//526 535//535
f 532//532 535//535 536//536
f 532//532 536//536 533//533
f 536//536 537//537 538//538
f 536//536 538//538 533//533
f 536//536 535//535 530//530
f 536//536 530//530 539//539
f 536//536 539//539 540//540
f 536//536 540//540 537//537
f 540//540 541//541 542//542
f 540//540 542//542 537//537
f 540//540 539//539 534//534
f 540//540 534//534 543//543
f 540//540 543//543 544//544
f 540//540 544//544 541//541
f 544//544 545//545 546//546
f 544//544 546//546 541//541
f 544//544 543//543 538//538
f 544//544 538//538 547//547
f 544//544 547//547 548//548
f 544//544 548//548 545//545
f 548//548 549//549 550//550
f 548//548 550//550 545//545
f 548//548 547//547 542//542
f 548//548 542//542 551//551
f 548//548 551//551 552//552
f 548//548 552//552 549//549
f 552//552 553//553 554//554
f 552//552 554//554 549//549
f 552//552 551//551 546//546
f 552//552 546//546 555//555
f 552//552 555//555 556//556
f 552//552 556//556 553//553
f 556//556 14//14 13//13
f 556//556 13//13 553//553
f 556//556 555//555 550//550
f 556//556 550//550 557//557
f 556//556 557//557 15//15
f 556//556 15//15 14//14
f 557//557 550//550 549//549
f 557//557 549//549 554//554
f 557//557 554//554 16//16
f 557//557 16//16 15//15
f 555//555 546//546 545//545
f 555//555 545//545 550//550
f 554//554 553//553 13//13
f 554//554 13//13 16//16
f 551//551 542//542 541//541
f 551//551 541//541 546//546
f 547//547 538//538 537//537
f 547//547 537//537 542//542
f 543//543 534//534 533//533
f 543//543 533//533 538//538
f 539//539 530//530 529//529
f 539//539 529//529 534//534
f 535//535 526//526 525//525
f 535//535 525//525 530//530
f 531//531 523//523 522//522
f 531//531 522//522 526//526
f 527//527 32//32 31//31
f 527//527 31//31 523//523
f 71//71 70//70 274//274
f 71//71 274//274 74//74
f 454//454 21//21 23//23
f 454//454 23//23 38//38
f 502//502 59//59 57//57
f 502//502 57//57 55//55
